<svg xmlns="http://www.w3.org/2000/svg" viewBox="0 0 640 512" fill="#FF9900">
  <path d="M180.41 203.01c-.72 22.65 10.6 32.68 10.88 39.05a8.164 8.164 0 0 1-4.1 6.27l-12.8 8.96c-10.88 7.62-22.08 11.77-33.28 11.77-15.2 0-30.41-9.09-40.2-23.09-7.2-10.59-11.44-24.23-11.26-37.23 .3-42.44 42.89-63.02 85.45-63.02 10.4 0 19.94 1.35 29.12 3.35 5.07 1.2 10.08 2.47 14.99 3.86c11.48 3.27 18.39 8.22 18.39 16.71 0 2.18-1.7 7.17-16.36 17.34-2.96 2.05-6.3 4.26-10.83 7.03ZM95.99 244.22a16 16 0 0 0-19.75-9.45c-10.3 2.41-17.41 10.48-17.41 21.25 0 23.99 28.61 39.9 47.8 39.9 11.53 0 19.99-3.32 26.87-9.97 6.21-6.07 9.81-14.13 11.02-24.65 1.19-10.37 2.83-18.33 4.9-23.64-16.31 5.95-34.2 9.23-53.44 6.56Zm79.1-148.94c-20.8 0-40.4 4.13-58.38 11.54l-5.25 2.21c-6.3 2.64-9.85 3.13-14.07 3.13-10.73 0-20.03-6.5-20.03-17.54 0-11.98 16.72-18.41 32.97-24.27 26.28-9.48 58.8-15.74 87.49-15.74 46.78 0 80.87 15.85 101.15 47.37 8.01 12.89 12.25 28.69 12.25 46.6 0 14.62-3.73 30-10.1 44.53-10.08 23.09-26.99 40.5-49.18 50.46-24.6 11.03-51.63 14.57-82.48 14.57-21.14 0-40.36-1.5-57.6-4.5-6.45-1.15-32.05-6.82-42.25-9.12-24.57-5.44-46.13-12.94-40.14-32.43 3.31-10.82 10.8-15.55 20.32-15.55 6.6 0 13.7 2.12 21.9 6.12 23.25 11.35 49.26 17.15 79.97 17.15 28.96 0 53.07-5.97 72.7-18 19.7-12.08 29.28-31.99 28.98-55.04-.22-9.11-.95-17.46-2.11-24.99-5.94 2.09-12.18 4.09-18.78 5.97-18.89 5.36-41.37 8.41-66.65 8.41-23.94 0-43.54-9.72-43.54-27.48 0-6.14 2.97-11.17 7.17-16.22 8.94-10.89 21.91-17.4 33.3-17.4 7.99 0 14.69 3.06 18.44 8.32 6.12 8.7 10.8 16.18 22.83 22.29C334.23 91.3 320 60.71 320 48c0-8.84 7.16-16 16-16s16 7.16 16 16c0 6.22 12.13 20.38 32.71 33.68 8.63 5.58 18.57 10 29 10 4.13 0 15.85-.31 17.74-7.31 1.08-4.05-1.2-7.09-3.98-9.35-5.33-4.43-10.15-8.9-10.15-8.9-2-1.87-5.08-7.91-3.43-13.07 1.56-4.89 6.15-7.64 11.2-7.64 2.71 0 5.48 .86 7.76 2.58 11.94 9.02 20.26 18.87 24.44 29.24 3.3 8.52 4.42 17.8 1.78 26.74-2.99 10.19-11.33 18.91-21.74 21.17-10.44 2.25-23.48-.6-31.65-7.12C391.4 105.58 375 92.79 375 92.79c8.33 12.96 13.6 27.54 15.06 42.83 9.27 2.31 17.68 5.35 25.25 9.35 5.38 2.81 9.27 6.21 11.99 10.27 4.99 7.38 7.24 16.39 6.79 27.05-.27 6.57-1.21 13.04-2.71 19.28 9.31-8.24 16.35-18.32 20.22-29.95 6.32-19.09 6.31-37.92-.04-56.94-4.16-12.42-10.61-24.38-19.06-35.21 20.8 5.96 37.85 17.99 48.3 35.27 10.67 17.81 14.35 38.03 10.89 59.87-9 57.31-53.18 92.95-103.68 92.95-25.22 0-47.8-7.93-67.35-23.69 22.27 33.7 61.43 56.17 105.89 56.17 18.97 0 37.33-3.55 53.5-10.26 27.19-11.28 50.09-32.37 62.75-58.07C610.31 189.3 640 149.13 640 103.5c0-42.83-23.08-80.95-58.33-104.6C555.5-13.5 518.67-1.53 505.36 25c-4.15 8.35-6.33 17.32-6.33 25.91 0 10.7 2.45 20.77 6.95 29.77-8.16-1.61-16.37-2.43-24.6-2.43-29.5 0-56.5 9.92-78.29 26.45-1.89-3.38-3.96-6.83-6.21-10.37-16.52-26.07-39.16-44.15-67.51-52.68 16.71 22.84 25.57 49.44 25.57 76.4 0 22.73-5.8 44.38-16.09 63.18 5.06 .71 10.24 1.06 15.46 1.06 13.09 0 27.01-1.95 41.34-5.8 2.49-.66 4.99-1.38 7.49-2.17-.21-1.58-.35-3.22-.41-4.94-.1-3.36 .02-6.44 .35-9.34-2.43 .84-4.93 1.62-7.48 2.35-17.59 4.93-34.59 7.41-50.69 7.41-60.18 0-102.11-27.17-102.11-65.89 0-5.89 1.29-11.43 3.65-16.54-2.42-2.37-5.06-4.76-7.92-7.13ZM496 351.95c0 16.73-13.27 30-30 30H126c-16.73 0-30-13.27-30-30v-95.93c0-16.73 13.27-30 30-30h340c16.73 0 30 13.27 30 30v95.93Z"/>
</svg> 