<svg xmlns="http://www.w3.org/2000/svg" viewBox="0 0 384 512" fill="#FFCA28">
  <path d="M223.7 391.9c.3-3.8 0-7.7-1-11.3L159.1 65.4c-1.1-3.5-2.5-6.9-4.3-10.1-2.9-5.2-9.5-6.1-13.8-2.2-1.5 1.3-2.6 3-3.3 4.9-2.7 7.4-4.5 15.1-5.4 22.9L100.5 431.7 223.7 391.9zm50.1-327.1c-4.3-7.1-13.8-7.4-18.5-.7-.9 1.3-1.7 2.7-2.3 4.1L181.7 364l147.9-89.6L273.8 64.8zm93.1 274.3L272.5 423.2 93 489.9c-4.8 1.7-9.9 2.6-15.1 2.6-8.5 0-16.8-2.4-23.9-7.1-5.1-3.3-8.7-8.4-10.1-14.3-1.4-5.9-.7-12.1 1.9-17.5.8-1.6 1.7-3.1 2.7-4.6l90.1-154.2-2.5-4.9L29.6 189.8c-3.3-1.8-6.5-3.9-9.6-6.1-6.1-4.4-9.9-11.1-10.7-18.6-.8-7.5 1.3-14.9 6-20.7 3.2-3.9 7.3-7.1 12-9.3 15.5-7.2 31.8-12.4 48.5-15.6 131.3-24.7 255.3 37.1 280 168.4 1.1 5.6 1.9 11.3 2.4 17 .8 7.5-.9 15-4.8 21.3-3.9 6.3-9.8 11.1-16.8 13.5z"/>
</svg> 