<svg xmlns="http://www.w3.org/2000/svg" viewBox="0 0 448 512" fill="#F05032">
  <path d="M440.8 238.4L291.2 91.5c-8.7-8.9-21.3-11.1-32-6.5s-19.1 14.4-19.1 27.7v45.9c-24.4 4.1-46.6 10.4-67 19.5c-68.2 30.1-101.9 94.3-119.2 118.2c-24.5 34.2-52.7 64.6-83.8 89.7c-16.1 13.5-1.5 25 6.7 25c26.7-1 52-11.4 75.6-32c5.8-5 13.1-5.4 19.3-1s10 13 7.5 20.8c-9 30-5.6 65.3 26.2 92.6c11.8 10.3 20.9 13.2 42.1 13.9c21.7 .6 25.5 1.3 39.2-7c32-13.5 58.6-51.1 52-86.5c27.1-16.4 58.8-36.1 93-52.9c21.8-11 27-11.1 66.3-21.7l-5.6 37.5c0 13.3 8.3 25 20.5 29.6s26.1-.4 33.6-11.9l93.2-128.9c4.3-6.3 6.6-13.7 6.6-21.3c0-7.6-2.3-15.1-6.7-21.5zM169.5 220.7c-22.4 18.9-20 53.2-10.4 69.8c4.3 7.2 5.1 9.3 9.6 17c2.1 3.5 6.1 4.4 9.1 2.1c3.3-2.6 3.8-7.5 1-10.8c-3.4-4.3-6.9-7.6-8.1-9.3l-5.1-25.2 24.7-12.6 5.2 11.8c16-28.5 16.5-36.5 17.8-42.3c4-17.5 8.7-27.9 14.7-35.7c-28.6 7.2-45.9 26.2-58.5 35.2zM369.8 165.8c-12.2-6.1-47.8 .3-64.4 3.2l-.8 4.3c0 .6-.2 1.1-.2 1.7c0 .6 .1 1.2 .2 1.7c16.7-5.5 52.2-14 64.3-6.7c1.9 .9 3.5 3.4 4.6 7.6c11.7 44-40.5 52.5-81.1 71c-1.3 .6-2.7 1.2-4 1.9c-11.3 5.1-22 10.4-32.1 15.7c-34 18.4-61.8 35.4-80 58.6c-58.4 38.2-54.3 111.5-23.2 142.2c5.3 5.3 10.9 11.3 17.9 11.3c6.9 0 14-5.9 17.4-11.1c24.1-34.7 1.7-62.2-17-82.3c0 0-13.4-14.7-11.4-32.3c3.5-30.8 31.6-55.3 85.3-76.4c13.8-5.7 30.6-11.3 49.9-17c36.5-10.8 50.7-20.8 67.8-30.3c7.9-4.4 15.4-8.6 25.3-12.4c-17.3-3.7-25.9-5.5-33.9-9.9z"/>
</svg> 