<svg xmlns="http://www.w3.org/2000/svg" viewBox="0 0 384 512">
  <path fill="#E34F26" d="M0 32l34.9 395.8L191.5 480l157.6-52.2L384 32H0zm308.2 127.9H124.4l4.1 49.4h175.6l-13.6 148.4-97.9 27v.3h-1.1l-98.7-27.3-6-75.8h47.7L138 320l53.5 14.5 53.7-14.5 6-62.2H84.3L71.5 112.2h241.1l-4.4 47.7z"/>
  <path fill="#3C9CD7" d="M384 32H0l34.9 395.8L192 480l157.1-52.2L384 32zm-83.6 277.1L223 378.2l-66.4.3h-.1l-66.8-16.3-4.5-53.6h32.8l2.2 27.1 36.4 9.7 36.2-9.7 3.9-45.8h-112L66.4 192h175.2l2-22.2H60L45.5 96h293l-8.5 86.6-30.6 126.5z" transform="translate(48 0)"/>
</svg> 