<svg xmlns="http://www.w3.org/2000/svg" viewBox="0 0 512 512" fill="#6c63ff">
  <path d="M272 352c0-8.8-7.2-16-16-16s-16 7.2-16 16v48c0 8.8 7.2 16 16 16s16-7.2 16-16v-48zm120.8-289.8l-192-80c-6.9-2.9-14.7-2.9-21.7 0l-192 80C-10.1 71.5-3.8 96 16 96h16v16c0 70.7 57.3 128 128 128h32v64h-8c-35.3 0-64 28.7-64 64v64c0 35.3 28.7 64 64 64h96c35.3 0 64-28.7 64-64v-64c0-35.3-28.7-64-64-64h-8v-64h32c70.7 0 128-57.3 128-128V96h16c19.8 0 26.1-24.5 8.8-33.8zM112 272c-53 0-96-43-96-96v-16h15.4l147.5 61.5c8.5 3.5 17.8 5.5 27.1 5.5s18.6-2 27.1-5.5L381.4 160H400v16c0 53-43 96-96 96h-32v-64h16c26.5 0 48-21.5 48-48s-21.5-48-48-48H128c-26.5 0-48 21.5-48 48s21.5 48 48 48h16v64h-32z"/>
</svg> 