<svg xmlns="http://www.w3.org/2000/svg" viewBox="0 0 512 512" fill="#3178C6">
  <path d="M23 23h466v466H23V23zm301.8 298.4v-32.1c8.7 5.3 17.8 9.3 27.3 11.9c9.5 2.6 19.3 3.9 29.6 3.9c10 0 18.5-1.3 25.5-3.8c7-2.5 12.7-6.1 17.1-10.6c4.4-4.5 7.6-9.9 9.6-16.3c2-6.3 3-13.3 3-21c0-6.1-.8-11.7-2.4-16.7c-1.6-5-4-9.7-7.2-14c-3.2-4.3-7.1-8.4-11.7-12.4c-4.6-4-9.9-8-16-12l-12-8c-3.9-2.7-7.3-5.4-10.1-8.3c-2.9-2.9-5.2-5.9-7-8.9c-1.8-3-3.2-6.2-4.1-9.4c-.9-3.3-1.3-6.8-1.3-10.6c0-5.9 .9-11.1 2.6-15.7c1.7-4.6 4.3-8.5 7.5-11.7c3.3-3.2 7.3-5.6 12-7.2c4.7-1.6 9.9-2.4 15.6-2.4c4.3 0 8.1 .3 11.4 .9c3.3 .6 6.2 1.4 8.9 2.4c2.6 1 5.1 2.1 7.3 3.3c2.2 1.2 4.4 2.4 6.5 3.7l9.8-28.4c-7.5-3.7-15.7-6.5-24.4-8.4c-8.7-1.9-18.5-2.9-29.3-2.9c-9.5 0-18.3 1.4-26.6 4.3c-8.3 2.8-15.6 7-21.9 12.4c-6.3 5.4-11.3 12.1-15 20c-3.7 7.9-5.5 17-5.5 27.1c0 13.3 2.9 25 8.6 34.9c5.8 9.9 15.2 19.1 28.3 27.6l20.6 13.7c5.1 3.5 9.3 6.9 12.6 10.3c3.3 3.3 5.9 6.6 7.8 9.9c1.9 3.3 3.2 6.5 3.9 9.8c.7 3.3 1 6.5 1 9.8c0 4.3-.7 8.3-2 12.1c-1.4 3.8-3.4 7.1-6.2 9.9c-2.8 2.8-6.2 5-10.4 6.7c-4.2 1.7-9 2.5-14.6 2.5c-10.8 0-20.6-1.9-29.5-5.7c-8.9-3.8-17.2-9.2-25.1-16zm-85.5 30.9h147V318H288.6v-84.8H340V199H288.6V114.2H239.3V199H188v34.2h51.3V318h-47.5v34.3z"/>
</svg> 